<svg width="64" height="64" viewBox="0 0 64 64" fill="none" xmlns="http://www.w3.org/2000/svg">
<path d="M45.2424 0.39502H18.7575C7.25329 0.39502 0.39502 7.25329 0.39502 18.7575V45.2108C0.39502 56.7466 7.25329 63.6049 18.7575 63.6049H45.2108C56.715 63.6049 63.5733 56.7466 63.5733 45.2424V18.7575C63.6049 7.25329 56.7466 0.39502 45.2424 0.39502ZM48.6242 25.5526L41.3234 34.9708C40.4069 36.1402 39.1111 36.8987 37.6256 37.0568C36.1402 37.2464 34.6864 36.8355 33.517 35.919L27.7333 31.3679C27.5121 31.1782 27.2592 31.1782 27.1328 31.2098C27.0064 31.2098 26.7851 31.273 26.5955 31.5259L19.0735 41.2918C18.5995 41.8923 17.9042 42.2084 17.2088 42.2084C16.7032 42.2084 16.1975 42.0503 15.755 41.7027C14.7121 40.9125 14.5224 39.4271 15.3125 38.3842L22.8345 28.6182C23.7511 27.4488 25.0469 26.6903 26.5323 26.5007C27.9861 26.3111 29.4716 26.7219 30.6409 27.6385L36.4246 32.1896C36.6459 32.3792 36.8671 32.3792 37.0251 32.3476C37.1516 32.3476 37.3728 32.2844 37.5624 32.0316L44.8632 22.6133C45.6533 21.5703 47.1703 21.3807 48.1817 22.2024C49.2247 23.0558 49.4143 24.5412 48.6242 25.5526Z" fill="#D17D00"/>
</svg>
