<svg width="62" height="69" viewBox="0 0 62 69" fill="none" xmlns="http://www.w3.org/2000/svg">
<path d="M44.7778 0H17.2222C5.16667 0 0 6.88889 0 17.2222V51.6667C0 62 5.16667 68.8889 17.2222 68.8889H44.7778C56.8333 68.8889 62 62 62 51.6667V17.2222C62 6.88889 56.8333 0 44.7778 0ZM25.9367 49.8411C26.9356 50.84 26.9356 52.4933 25.9367 53.4922C25.42 54.0089 24.7656 54.25 24.1111 54.25C23.4567 54.25 22.8022 54.0089 22.2856 53.4922L15.3967 46.6033C14.3978 45.6044 14.3978 43.9511 15.3967 42.9522L22.2856 36.0633C23.2844 35.0644 24.9378 35.0644 25.9367 36.0633C26.9356 37.0622 26.9356 38.7156 25.9367 39.7144L20.8733 44.7778L25.9367 49.8411ZM46.6033 46.6033L39.7144 53.4922C39.1978 54.0089 38.5433 54.25 37.8889 54.25C37.2344 54.25 36.58 54.0089 36.0633 53.4922C35.0644 52.4933 35.0644 50.84 36.0633 49.8411L41.1267 44.7778L36.0633 39.7144C35.0644 38.7156 35.0644 37.0622 36.0633 36.0633C37.0622 35.0644 38.7156 35.0644 39.7144 36.0633L46.6033 42.9522C47.6022 43.9511 47.6022 45.6044 46.6033 46.6033ZM53.3889 24.9722H46.5C41.2644 24.9722 37.0278 20.7356 37.0278 15.5V8.61111C37.0278 7.19889 38.1989 6.02778 39.6111 6.02778C41.0233 6.02778 42.1944 7.19889 42.1944 8.61111V15.5C42.1944 17.8767 44.1233 19.8056 46.5 19.8056H53.3889C54.8011 19.8056 55.9722 20.9767 55.9722 22.3889C55.9722 23.8011 54.8011 24.9722 53.3889 24.9722Z" fill="#D17D00"/>
</svg>
