<svg width="28" height="30" viewBox="0 0 28 30" fill="none" xmlns="http://www.w3.org/2000/svg">
<path d="M20.6515 19.3495C24.2018 17.4215 26.8932 15.9524 27.1252 15.8382C27.8673 15.4479 28.6337 14.4148 27.1252 13.6124C26.6382 13.36 24.0159 11.9367 20.6515 10.1011L15.9875 14.7596L20.6515 19.3494V19.3495Z" fill="#FFD900"/>
<path d="M15.9876 14.7596L1.13696 29.5623C1.48554 29.6079 1.87907 29.5165 2.34304 29.2643C3.31713 28.7369 13.6434 23.1596 20.6515 19.3505L15.9876 14.7596Z" fill="#F43249"/>
<path d="M15.9875 14.7596L20.6514 10.124C20.6514 10.124 3.38746 0.805891 2.34293 0.25583C1.94939 0.0253136 1.50839 -0.04316 1.11377 0.0253136L15.9875 14.7596V14.7596Z" fill="#00EE76"/>
<path d="M15.9875 14.7596L1.11377 0.0253067C0.510125 0.163336 0 0.690787 0 1.76949V27.8181C0 28.8054 0.394734 29.5165 1.13684 29.5851L15.9875 14.7596Z" fill="#00D3FF"/>
</svg>
