<svg width="30" height="30" viewBox="0 0 30 30" fill="none" xmlns="http://www.w3.org/2000/svg">
<path d="M6.57 0H23.43C27.0586 0 30 2.94141 30 6.57V23.43C30 27.0586 27.0586 30 23.43 30H6.57C2.94141 30 0 27.0586 0 23.43V6.57C0 2.94141 2.94141 0 6.57 0Z" fill="url(#paint0_linear_32_90)"/>
<path d="M9.6144 21.7746L9.61722 21.7756L8.59147 23.5521C8.21706 24.2006 7.38784 24.4228 6.73933 24.0484C6.09093 23.674 5.86862 22.8448 6.24304 22.1963L6.99866 20.8875L7.0712 20.7619C7.20069 20.5758 7.52026 20.2545 8.15952 20.3149C8.15952 20.3149 9.66386 20.4782 9.77272 21.26C9.77272 21.26 9.78749 21.5173 9.6144 21.7746V21.7746ZM24.1624 17.2371H20.9639C20.746 17.2225 20.651 17.1447 20.6135 17.0994L20.6112 17.0953L17.1873 11.1649L17.1828 11.1679L16.9775 10.8735C16.641 10.3588 16.1066 11.675 16.1066 11.675C15.4685 13.1418 16.1972 14.8092 16.4511 15.3132L21.2068 23.5504C21.5811 24.1988 22.4103 24.4211 23.059 24.0465C23.7074 23.6721 23.9297 22.8429 23.5551 22.1944L22.366 20.1347C22.343 20.0848 22.3029 19.9493 22.5467 19.9487H24.1624C24.9112 19.9487 25.5183 19.3417 25.5183 18.5929C25.5183 17.844 24.9112 17.237 24.1624 17.237V17.2371ZM17.9498 19.0802C17.9498 19.0802 18.1206 19.9487 17.46 19.9487H5.63589C4.88706 19.9487 4.28003 19.3417 4.28003 18.5929C4.28003 17.844 4.88706 17.237 5.63589 17.237H8.67573C9.16651 17.2086 9.28276 16.9253 9.28276 16.9253L9.28557 16.9267L13.2535 10.0539L13.2524 10.0536C13.3247 9.92086 13.2644 9.79535 13.254 9.77555L11.9435 7.50574C11.5691 6.85735 11.7913 6.02801 12.4398 5.65371C13.0883 5.2793 13.9175 5.50137 14.2919 6.14988L14.8997 7.20258L15.5064 6.15176C15.8808 5.50336 16.71 5.28106 17.3585 5.65559C18.007 6.03 18.2292 6.8591 17.8548 7.50762L12.3332 17.0713C12.309 17.1295 12.3016 17.2209 12.4813 17.237H15.7817L15.7824 17.2692C15.7824 17.2692 17.69 17.2989 17.9498 19.0802Z" fill="white"/>
<defs>
<linearGradient id="paint0_linear_32_90" x1="15" y1="0" x2="15" y2="30" gradientUnits="userSpaceOnUse">
<stop stop-color="#17C9FB"/>
<stop offset="1" stop-color="#1A74E8"/>
</linearGradient>
</defs>
</svg>
