<svg width="35" height="39" viewBox="0 0 35 39" fill="none" xmlns="http://www.w3.org/2000/svg">
<path d="M34.8258 17.785V9.2245C34.8258 7.6255 33.6202 5.812 32.123 5.2075L21.2924 0.7615C18.8619 -0.233 16.1202 -0.233 13.6897 0.7615L2.85911 5.2075C1.38134 5.812 0.175781 7.6255 0.175781 9.2245V17.785C0.175781 27.3205 7.07856 36.2515 16.5091 38.8645C17.1508 39.04 17.8508 39.04 18.4924 38.8645C27.923 36.2515 34.8258 27.3205 34.8258 17.785ZM18.9591 21.1975V26.326C18.9591 27.1255 18.298 27.7885 17.5008 27.7885C16.7036 27.7885 16.0424 27.1255 16.0424 26.326V21.1975C14.0786 20.5735 12.6397 18.7405 12.6397 16.576C12.6397 13.885 14.8174 11.701 17.5008 11.701C20.1841 11.701 22.3619 13.885 22.3619 16.576C22.3619 18.76 20.923 20.5735 18.9591 21.1975Z" fill="white"/>
</svg>
