<svg width="35" height="35" viewBox="0 0 35 35" fill="none" xmlns="http://www.w3.org/2000/svg">
<path d="M6.66667 21.6641C5.1 21.6641 3.65 22.2141 2.5 23.1307C0.966667 24.3474 0 26.2307 0 28.3307C0 29.5807 0.35 30.7641 0.966667 31.7641C2.11667 33.6974 4.23333 34.9974 6.66667 34.9974C8.35 34.9974 9.88333 34.3807 11.05 33.3307C11.5667 32.8974 12.0167 32.3641 12.3667 31.7641C12.9833 30.7641 13.3333 29.5807 13.3333 28.3307C13.3333 24.6474 10.35 21.6641 6.66667 21.6641ZM10.1167 27.6141L6.56667 30.8974C6.33333 31.1141 6.01667 31.2307 5.71667 31.2307C5.4 31.2307 5.08333 31.1141 4.83333 30.8641L3.18333 29.2141C2.7 28.7307 2.7 27.9307 3.18333 27.4474C3.66667 26.9641 4.46667 26.9641 4.95 27.4474L5.75 28.2474L8.41667 25.7807C8.91667 25.3141 9.71667 25.3474 10.1833 25.8474C10.65 26.3474 10.6167 27.1474 10.1167 27.6141Z" fill="white"/>
<path d="M23.0833 3.2487V9.58203H20.5833V3.2487C20.5833 2.7987 20.1833 2.58203 19.9167 2.58203C19.8333 2.58203 19.75 2.5987 19.6667 2.63203L6.45 7.61537C5.56667 7.9487 5 8.78203 5 9.73203V10.8487C3.48333 11.982 2.5 13.7987 2.5 15.8487V9.73203C2.5 7.7487 3.71667 5.98203 5.56667 5.28203L18.8 0.282031C19.1667 0.148698 19.55 0.0820312 19.9167 0.0820312C21.5833 0.0820312 23.0833 1.43203 23.0833 3.2487Z" fill="white"/>
<path d="M34.1658 20.8333V22.5C34.1658 22.95 33.8158 23.3167 33.3492 23.3333H30.9158C30.0325 23.3333 29.2325 22.6833 29.1658 21.8167C29.1158 21.3 29.3158 20.8167 29.6492 20.4833C29.9492 20.1667 30.3658 20 30.8158 20H33.3325C33.8158 20.0167 34.1658 20.3833 34.1658 20.8333Z" fill="white"/>
<path d="M30.8 18.2487H32.5C33.4167 18.2487 34.1667 17.4987 34.1667 16.582V15.8487C34.1667 12.3987 31.35 9.58203 27.9 9.58203H8.76667C7.35 9.58203 6.05 10.0487 5 10.8487C3.48333 11.982 2.5 13.7987 2.5 15.8487V18.8154C2.5 19.4487 3.16667 19.8487 3.76667 19.6487C4.7 19.332 5.68333 19.1654 6.66667 19.1654C11.7167 19.1654 15.8333 23.282 15.8333 28.332C15.8333 29.532 15.5167 30.8487 15.0167 32.0154C14.75 32.6154 15.1667 33.332 15.8167 33.332H27.9C31.35 33.332 34.1667 30.5154 34.1667 27.0654V26.7487C34.1667 25.832 33.4167 25.082 32.5 25.082H31.05C29.45 25.082 27.9167 24.0987 27.5 22.5487C27.1667 21.282 27.5667 20.0487 28.4 19.2487C29.0167 18.6154 29.8667 18.2487 30.8 18.2487ZM21.6667 17.9154H13.3333C12.65 17.9154 12.0833 17.3487 12.0833 16.6654C12.0833 15.982 12.65 15.4154 13.3333 15.4154H21.6667C22.35 15.4154 22.9167 15.982 22.9167 16.6654C22.9167 17.3487 22.35 17.9154 21.6667 17.9154Z" fill="white"/>
</svg>
